<svg xmlns="http://www.w3.org/2000/svg" xmlns:xlink="http://www.w3.org/1999/xlink" id="Layer_1" x="0px" y="0px" viewBox="0 0 536.9 148.3" style="enable-background:new 0 0 536.9 148.3;" xml:space="preserve"><style type="text/css">	.st0{fill:#980065;}	.st1{fill:#828C27;}</style><g>	<path class="st0" d="M179.9,80.2c0-5.5-0.7-10.9-2.1-16l14.4-6c-1.6-5.3-3.7-10.4-6.3-15.2l-14.4,6c-5.4-9.3-13.2-17.1-22.6-22.6  l6-14.4c-4.8-2.6-9.9-4.7-15.2-6.3l-6,14.4c-5.1-1.4-10.4-2.1-16-2.1c-5.5,0-10.9,0.7-16,2.1l-6-14.4c-5.3,1.6-10.4,3.7-15.2,6.3  l6,14.4c-0.9,0.5-1.8,1.1-2.7,1.7c-8.1,5.3-15,12.5-19.8,20.9l-9.4-3.9l-5-2.1c-2.6,4.8-4.7,9.9-6.3,15.2l0.9,0.4l13.6,5.6  c-1.4,5.1-2.1,10.4-2.1,16s0.7,10.9,2.1,16l-14.4,6c1.6,5.3,3.7,10.4,6.3,15.2l14.4-6c2.4,4.2,5.3,8.1,8.6,11.5h26.5  c-2.3-1-4.5-2.2-6.5-3.5c-5.6-3.6-10.4-8.4-14.1-14.1c-2.9-4.6-5.1-9.7-6.3-15.2c-0.7-3.2-1.1-6.5-1.1-9.9s0.4-6.7,1.1-9.9  c1.2-5.5,3.4-10.6,6.3-15.2c3.6-5.6,8.4-10.4,14.1-14.1c4.6-2.9,9.7-5.1,15.2-6.3c3.2-0.7,6.5-1.1,9.9-1.1c3.4,0,6.7,0.4,9.9,1.1v0  c5.5,1.2,10.6,3.4,15.2,6.3c3.5,2.2,6.6,4.9,9.3,7.9c0.3,0.4,0.6,0.7,1,1.1c0,0,0,0,0,0c1.2,1.4,2.3,2.9,3.4,4.5  c7.5,10.8,11.9,23.9,11.9,38c0,2.5-0.2,5-0.4,7.5c-0.4,3.7-1.1,7.3-2.1,10.8c-2.3,7.2-6.1,13.7-11.1,19.1c1.6-1.2,3.1-2.4,4.5-3.7  c4.8-4.3,8.9-9.3,12.2-15l14.4,6c2.6-4.8,4.7-9.9,6.3-15.2l-14.4-6C179.2,91.1,179.9,85.7,179.9,80.2z"></path></g><g>	<path class="st0" d="M239.1,142.6v-62h45.9v12.1h-32.6v12.6H281v12.1h-28.7v13h33v12.1H239.1z"></path>	<path class="st0" d="M312.7,143.6c-13.9,0-24.1-10.7-24.1-24v-0.2c0-13.2,10.1-24.1,24.3-24.1c8.7,0,14.2,2.9,18.5,7.8l-8,8.7  c-2.9-3.1-5.9-5.1-10.6-5.1c-6.6,0-11.2,5.8-11.2,12.6v0.2c0,7.1,4.6,12.8,11.8,12.8c4.4,0,7.4-1.9,10.6-4.9l7.7,7.8  C327.2,140.1,322,143.6,312.7,143.6z"></path>	<path class="st0" d="M355.5,143.6c-14.4,0-25-10.6-25-24v-0.2c0-13.3,10.7-24.1,25.2-24.1c14.4,0,25,10.6,25,24v0.2  C380.7,132.8,370,143.6,355.5,143.6z M367.7,119.5c0-6.8-4.9-12.8-12.2-12.8c-7.5,0-12,5.8-12,12.6v0.2c0,6.8,4.9,12.8,12.2,12.8  c7.5,0,12-5.8,12-12.6V119.5z"></path>	<path class="st0" d="M442.9,142.6v-25.9c0-6.2-2.8-9.4-7.7-9.4c-4.9,0-8,3.2-8,9.4v25.9h-13.1v-25.9c0-6.2-2.8-9.4-7.7-9.4  c-4.9,0-8,3.2-8,9.4v25.9h-13.1V96.2h13.1v6.6c3-3.9,7-7.4,13.7-7.4c6.1,0,10.6,2.7,13.1,7.4c4.1-4.8,8.9-7.4,15.2-7.4  c9.8,0,15.7,5.9,15.7,17v30.2H442.9z"></path>	<path class="st0" d="M462.9,92V80.6h13.8V92H462.9z M463.2,142.6V96.2h13.1v46.4H463.2z"></path>	<path class="st0" d="M484,142.6v-62h13.1v62H484z"></path>	<path class="st0" d="M504.7,142.6v-62h13.1v62H504.7z"></path></g><path class="st1" d="M163.7,87.9c-0.1,0.7-0.3,1.5-0.4,2.2c-1.2,5.5-3.4,10.6-6.3,15.2c-3.6,5.6-8.4,10.4-14.1,14.1 c-4.6,2.9-9.7,5.1-15.1,6.3c-3.2,0.7-6.5,1.1-10,1.1c0,0,0,0,0,0h-41c0,0,0,0,0,0H19.5c3.2,5.6,5.3,8.9,9.5,15.5h88.8c0,0,0,0,0.1,0 v0c25.7,0,46.5-20.8,46.5-46.5C164.4,93.1,164.1,90.5,163.7,87.9z"></path><path class="st1" d="M191.9,124.8c-20.7-10.4-24.3,2.5-41.4,12.6c17.3-9.9,24.9-1.9,34.3,2c20.7,10.4,24.3-2.5,41.4-12.6 C208.9,136.7,201.3,128.8,191.9,124.8z"></path></svg>